<svg xmlns="http://www.w3.org/2000/svg" version="1.1" xmlns:xlink="http://www.w3.org/1999/xlink" width="512" height="512" x="0" y="0" viewBox="0 0 100 100" style="enable-background:new 0 0 512 512" xml:space="preserve" class=""><g><path d="M97.295 45.682a47.42 47.42 0 0 0-2.484-11.51 46.733 46.733 0 0 0-1.582-3.953 47.563 47.563 0 0 0-86.443 0c-.592 1.303-1.095 2.608-1.585 3.957A47.669 47.669 0 0 0 2.5 50a47.611 47.611 0 0 0 2.689 15.828c.472 1.34.983 2.642 1.582 3.953a47.563 47.563 0 0 0 86.443 0c.592-1.304 1.095-2.608 1.585-3.957A47.65 47.65 0 0 0 97.5 50c0-1.461-.077-2.886-.205-4.318zM33.558 13.349a55.984 55.984 0 0 0-7.231 18.383H14.193a40.383 40.383 0 0 1 19.364-18.383zM11.254 60.673a40.435 40.435 0 0 1-.983-4.71c-.047-.329-.084-.662-.124-.99a36.524 36.524 0 0 1 0-9.945c.04-.328.077-.661.124-.987.239-1.594.572-3.173.998-4.728.025-.091.058-.183.084-.274h13.753a88.272 88.272 0 0 0 0 21.923H11.343c-.03-.099-.063-.194-.089-.29zm2.939 7.596h12.134a55.905 55.905 0 0 0 7.23 18.382 40.334 40.334 0 0 1-19.364-18.382zm32.153 20.948c-5.006-2.55-9.832-10.121-12.492-20.948h12.492zm0-28.255H32.462a80.96 80.96 0 0 1 0-21.923h13.884v21.923zm0-29.23H33.854c2.66-10.826 7.486-18.397 12.492-20.949v20.948zm39.46 0H73.674a55.905 55.905 0 0 0-7.23-18.382 40.34 40.34 0 0 1 19.364 18.382zM53.654 10.784c5.007 2.558 9.833 10.121 12.493 20.948H53.653zm0 28.255h13.884c.491 3.634.736 7.295.731 10.961a81.143 81.143 0 0 1-.73 10.962H53.652zm0 50.179V68.269h12.493c-2.66 10.827-7.486 18.397-12.493 20.949zm12.79-2.566a55.984 55.984 0 0 0 7.23-18.382h12.134a40.386 40.386 0 0 1-19.365 18.382zM89.85 54.974c-.04.328-.077.66-.124.987a40.623 40.623 0 0 1-.983 4.728c-.025.091-.059.182-.084.274H74.892c.451-3.637.68-7.298.684-10.962a89.83 89.83 0 0 0-.684-10.961h13.764c.03.098.062.193.088.288a40.58 40.58 0 0 1 .983 4.71c.047.329.084.662.124.99.453 3.3.453 6.646 0 9.946z" fill="#ffffff" opacity="1" data-original="#000000" class=""></path></g></svg>